<svg width="200" height="200" viewBox="0 0 200 200" fill="none" xmlns="http://www.w3.org/2000/svg">
<g clip-path="url(#clip0_4_301)">
<path fill-rule="evenodd" clip-rule="evenodd" d="M26.123 117.195V5.00967H99.9012C99.9012 69.5033 99.9012 134.022 99.9012 198.515C56.4906 183.556 27.3925 148.16 26.123 117.195Z" fill="#FFF212"/>
<path fill-rule="evenodd" clip-rule="evenodd" d="M173.679 117.195V5.00967H99.9011C99.9011 69.5033 99.9011 134.022 99.9011 198.515C143.312 183.556 172.41 148.16 173.679 117.195Z" fill="#FFF212"/>
<path fill-rule="evenodd" clip-rule="evenodd" d="M30.5786 116.448V9.58969H99.9012C99.9012 71.0466 99.9012 132.479 99.9012 193.935C58.5317 179.673 31.7734 145.97 30.5786 116.448Z" fill="#3E4095" stroke="#3E4095" stroke-width="0.0746742"/>
<path fill-rule="evenodd" clip-rule="evenodd" d="M169.224 116.448V9.58969H99.9011C99.9011 71.0466 99.9011 132.479 99.9011 193.935C141.246 179.673 168.029 145.97 169.224 116.448Z" fill="#013CA6" stroke="#013CA6" stroke-width="0.0746742"/>
<path d="M35.6314 35.2527C35.6314 33.9584 34.8847 33.1121 34.7851 32.44L42.6757 32.5147C44.6421 32.5147 46.4592 33.0623 47.7536 34.1575C49.0728 35.2527 49.5955 36.6715 49.7449 38.389C49.944 41.0524 48.9235 44.1638 46.6832 44.811C47.9278 45.6573 50.2427 46.429 49.9938 51.7557C49.8693 54.1453 49.023 55.4397 47.5295 56.8585C44.9906 59.2231 37.6228 55.1658 34.4615 54.5187C34.9594 54.1204 35.5319 53.1994 35.5319 51.93C35.5568 47.2006 35.6314 38.1401 35.6314 35.2527ZM39.863 52.4776C41.8792 53.0501 43.522 53.4732 44.5177 52.9007C46.9321 51.5068 46.0858 45.9809 39.8132 45.9311L39.863 52.4776ZM39.7883 42.3219L41.0578 42.4463C42.6508 42.6455 44.0945 42.5708 44.7666 41.7743C46.2103 40.0817 45.588 36.4226 42.1032 36.4973L39.7883 36.5471V42.3219Z" fill="#FFF212"/>
<path d="M53.155 54.1951C53.155 52.4029 53.7275 39.8328 53.3044 34.8296C53.2297 33.7344 52.7568 32.8134 52.6074 32.664C52.6074 32.5147 57.1128 32.6142 57.7848 32.5894C57.7848 39.6834 57.4115 49.3662 57.4115 56.5598C61.2945 57.3563 63.3605 57.7297 64.5553 58.0533C64.7793 58.4515 63.2609 61.9861 63.0867 62.6084C59.353 61.5878 55.9926 61.3887 52.3087 59.9699C52.3087 59.9201 52.3087 59.8703 52.3087 59.8205C53.1052 59.6961 53.155 57.2816 53.155 55.0165C53.155 54.7427 53.155 54.4689 53.155 54.1951Z" fill="#FFF212"/>
<path d="M85.5636 65.6949L80.8094 65.2718L79.5897 58.5511L71.9231 57.7546L70.3301 63.9027L65.6256 63.0315L66.5715 60.5175L73.9144 32.664H78.0962L85.5636 65.6949ZM78.4447 53.4235L75.856 40.8035L72.9188 52.9754L78.4447 53.4235Z" fill="#FFF212"/>
<path fill-rule="evenodd" clip-rule="evenodd" d="M99.5028 38.7126C99.5028 36.9453 99.5028 34.5309 99.5028 33.6348C99.5028 33.1121 97.7604 32.5396 95.6198 32.5396C94.1761 32.5396 92.583 32.5396 91.1891 33.9086C87.7292 37.2938 87.9283 40.6791 87.9283 40.6791C87.779 43.3922 88.227 49.3164 91.1144 50.5858C99.3037 54.1951 97.5613 64.077 87.6545 59.7708C88.227 61.7621 88.7747 63.7285 89.3472 65.6949C91.8861 66.3421 95.4704 67.7111 98.4076 63.6538C101.668 60.5424 101.594 51.009 97.1631 47.8229C94.6988 45.6076 89.7454 42.6455 93.1555 38.6877C95.4953 36.6964 97.2626 37.941 99.5028 38.7126Z" fill="#FFF212"/>
<path fill-rule="evenodd" clip-rule="evenodd" d="M164.42 36.5969C164.42 35.2776 164.494 33.6348 164.494 32.9627C164.494 32.2906 161.184 31.743 158.147 32.6142C155.434 33.4108 152.97 35.3274 153.044 38.6131C153.069 39.8825 152.97 42.2223 153.816 43.89C155.21 46.7028 157.873 45.4582 160.487 47.5491C161.134 48.0718 161.308 48.7439 161.308 49.4159C161.358 51.5566 158.346 53.996 152.92 53.7968C153.492 55.2654 153.99 56.4353 154.563 57.879C161.856 58.0781 167.133 50.2871 165.042 45.508C164.544 44.363 163.474 43.4669 162.105 42.7948C160.113 41.8489 157.002 42.3219 157.176 39.086C157.226 38.4886 157.126 37.7916 157.898 37.1196C160.263 35.651 162.155 36.0244 164.42 36.5969Z" fill="#FFF212"/>
<path fill-rule="evenodd" clip-rule="evenodd" d="M112.347 38.1899L112.471 65.8443L108.339 66.2923V38.1899H102.863V32.7138H118.669L117.051 38.1899H112.347Z" fill="#FFF212"/>
<path fill-rule="evenodd" clip-rule="evenodd" d="M132.086 63.5543L120.76 65.0477L121.681 61.9612L121.407 36.3231L120.412 32.7636H132.708L132.658 37.6672L125.888 37.8165L125.713 45.3586L131.936 45.0599V50.1378L125.788 50.5858L125.863 59.1983L133.604 58.1528L132.086 63.5543Z" fill="#FFF212"/>
<path fill-rule="evenodd" clip-rule="evenodd" d="M135.073 32.6142C135.396 33.8339 135.72 35.0785 136.044 36.2982C136.118 44.363 136.193 52.4527 136.268 60.5424C135.77 61.3638 135.272 62.2101 134.774 63.0315C136.691 62.6333 138.632 62.2101 140.574 61.8119C140.424 57.7546 140.748 53.8466 140.599 49.8142C141.246 49.864 141.42 49.7893 142.067 49.864C143.461 53.3986 144.83 56.9331 146.224 60.4677C147.991 59.9948 149.759 59.5218 151.526 59.0489C149.684 55.365 147.867 51.7059 146.025 48.022C152.945 42.8695 151.053 32.2409 140.922 32.4151C139.379 32.44 136.94 32.5147 135.073 32.6142Z" fill="#FFF212"/>
<path fill-rule="evenodd" clip-rule="evenodd" d="M140.449 37.1943C140.449 40.0568 140.449 42.9442 140.449 45.8067C141.818 45.4831 143.088 45.3337 143.909 44.6119C146.1 42.6206 145.95 39.1358 143.884 37.7419C143.088 37.1943 141.893 37.2689 140.449 37.1943Z" fill="#013CA6"/>
<path d="M70.6537 28.3827V14.9413H72.7446V20.8904L76.9263 14.9413H79.739L75.856 20.1685L79.9382 28.3827H77.2499L74.4123 22.0603L72.7446 24.3005V28.3827H70.6537ZM81.0085 28.3827V14.9413H88.6253V17.2065H83.0994V20.1934H88.227V22.4585H83.0994V26.0927H88.8244V28.3827H81.0085ZM90.5917 28.3827V14.9413H94.9726C96.0678 14.9413 96.8643 15.0658 97.3622 15.3147C97.8849 15.5387 98.2831 15.9619 98.5818 16.5842C98.8805 17.2065 99.0299 17.9034 99.0299 18.6999C99.0299 19.7205 98.8059 20.5419 98.3329 21.214C97.8849 21.8612 97.2128 22.2843 96.3167 22.4337C96.7648 22.7821 97.1381 23.1555 97.4119 23.5787C97.7106 23.9769 98.1089 24.6988 98.6067 25.7442L99.8513 28.3827H97.3622L95.8687 25.4455C95.346 24.4001 94.9726 23.7529 94.7735 23.4791C94.5743 23.2053 94.3752 23.0062 94.1512 22.9066C93.9271 22.807 93.5787 22.7572 93.1057 22.7572H92.6826V28.3827H90.5917ZM92.6826 20.6166H94.2258C95.2215 20.6166 95.8438 20.5668 96.0927 20.4672C96.3416 20.3428 96.5407 20.1685 96.6652 19.8947C96.8146 19.6209 96.8892 19.2724 96.8892 18.8742C96.8892 18.4261 96.7897 18.0528 96.5905 17.779C96.4163 17.5052 96.1674 17.3309 95.8189 17.2562C95.6447 17.2314 95.1468 17.2065 94.3005 17.2065H92.6826V20.6166ZM110.256 28.3827H108.016L107.12 25.3211H102.988L102.141 28.3827H99.926L103.933 14.9413H106.124L110.256 28.3827ZM106.448 23.0559L105.004 18.0777L103.635 23.0559H106.448ZM111.426 28.3827V15.0658H113.517V26.0927H118.669V28.3827H111.426ZM129.422 28.3827H127.182L126.286 25.3211H122.154L121.308 28.3827H119.092L123.1 14.9413H125.29L129.422 28.3827ZM125.614 23.0559L124.17 18.0777L122.801 23.0559H125.614Z" fill="#FFF212"/>
<path fill-rule="evenodd" clip-rule="evenodd" d="M78.6438 136.411C78.0713 136.735 77.4739 137.083 76.9014 137.432C70.7283 132.429 64.6548 127.177 59.1041 121.974C54.5987 117.768 53.6528 117.892 55.221 111.246C56.1918 107.015 58.0586 102.31 58.9298 100.618C60.5726 95.6642 63.5347 90.6361 66.7706 85.9067C67.7414 84.6124 69.21 83.791 71.0021 83.3678C72.4956 82.9944 74.0638 83.1687 75.4328 82.397C80.8094 79.435 84.3439 67.1386 100.075 75.6764C100.075 78.5638 100.075 81.4761 100.075 84.3884C94.9975 79.9079 89.5213 79.2358 86.1859 80.1319C80.8591 82.5962 78.7932 85.5583 71.3008 87.2011C70.6537 87.3255 70.6288 87.3255 70.1061 87.7487C64.5304 92.2789 67.6667 100.792 72.2716 105.023C69.9318 104.127 66.9697 102.484 65.1278 99.0743C62.315 105.023 65.2771 108.508 70.6786 111.122C67.592 111.794 64.6299 109.703 62.6386 108.533C61.8919 112.64 60.5478 112.964 65.9243 116.05C64.2566 116.424 62.4146 116.224 61.3443 115.602C61.1203 116.1 60.9709 116.623 61.0207 117.121C66.223 123.717 72.0476 130.089 78.6438 136.411Z" fill="#FFF212"/>
<path fill-rule="evenodd" clip-rule="evenodd" d="M87.4553 126.355C85.6631 130.363 82.253 135.69 77.6481 137.98C78.2206 138.527 79.3656 139.523 79.963 140.07C84.3936 138.95 88.0278 130.437 87.4553 126.355Z" fill="#FFF212"/>
<path fill-rule="evenodd" clip-rule="evenodd" d="M87.1068 88.2465C89.5711 88.595 92.11 88.5701 94.3751 89.6653C95.4454 90.1383 96.2917 91.0095 97.3123 91.7313C97.9097 91.8807 98.6813 91.8807 99.4529 91.7313C98.4573 86.3299 90.9899 87.0268 87.1068 88.2465Z" fill="#FFF212"/>
<path fill-rule="evenodd" clip-rule="evenodd" d="M87.0821 111.644C84.8916 111.993 83.1243 110.997 81.5562 110.475C81.3819 111.52 81.5064 112.665 82.3278 113.437C84.8418 113.063 88.3764 113.76 88.1026 118.216C87.6297 119.386 86.8829 119.759 86.2358 119.809C85.6384 119.883 85.1654 119.635 84.6676 119.336C80.8592 117.096 80.5107 111.968 79.9382 108.11C81.6806 109.429 84.12 110.873 87.0821 111.644Z" fill="#FFF212"/>
<path fill-rule="evenodd" clip-rule="evenodd" d="M86.9326 101.588C86.3103 103.032 85.4889 104.401 84.6675 105.621C88.6003 113.063 92.7074 121.277 90.9401 129.965C96.9389 120.008 92.4336 111.371 88.9986 107.363C89.0235 106.591 88.9986 105.82 89.4217 105.123C90.9152 102.609 92.7323 100.269 91.3882 98.1533C91.2139 96.0624 89.4964 94.6187 88.1274 93.6231C87.7291 96.2865 87.978 98.9 86.9326 101.588Z" fill="#FFF212"/>
<path fill-rule="evenodd" clip-rule="evenodd" d="M91.5375 133.698C95.545 137.407 99.8761 143.505 96.3167 149.006C92.6825 153.761 90.6414 155.279 92.0851 160.432C89.3969 161.427 90.6912 161.477 91.5873 163.618C91.2139 164.29 90.6414 164.912 90.1187 165.485C90.5917 166.132 91.2637 166.729 91.5375 167.401C91.4131 167.924 91.3633 168.472 90.8406 168.82C91.2886 169.218 91.9607 169.542 92.2096 170.015C92.2096 170.712 92.2345 171.384 92.1598 172.106C92.6825 172.529 93.4542 172.678 93.5039 173.4C93.8026 174.047 93.8773 174.894 93.7778 175.665C95.1219 176.138 94.9974 175.914 95.097 177.358C95.8188 177.781 96.6403 178.154 97.2874 178.602C98.308 180.17 102.241 181.067 104.506 181.241C88.9986 173.624 100.648 152.715 106.597 143.456C107.393 144.252 107.991 144.65 108.762 145.447C106.124 149.803 103.286 154.483 101.619 159.087C110.206 152.939 118.619 157.569 121.557 164.364C124.519 171.309 121.93 180.693 108.887 182.809C97.6359 184.651 88.227 179.573 86.6588 168.944C85.1404 159.959 89.1231 153.263 93.2053 146.542C96.242 141.29 94.5992 138.353 91.5375 133.698Z" fill="#FFF212"/>
<path fill-rule="evenodd" clip-rule="evenodd" d="M121.507 136.411C122.104 136.735 122.677 137.083 123.274 137.432C129.447 132.429 135.521 127.177 141.071 121.974C145.577 117.768 146.523 117.892 144.955 111.246C143.959 107.015 142.117 102.31 141.246 100.618C139.603 95.6642 136.641 90.6361 133.38 85.9067C132.434 84.6124 130.941 83.791 129.148 83.3678C127.655 82.9944 126.112 83.1687 124.743 82.397C119.366 79.435 115.832 67.1386 100.075 75.6764C100.075 78.5638 100.075 81.4761 100.075 84.3884C105.178 79.9079 110.654 79.2358 113.99 80.1319C119.316 82.5962 121.382 85.5583 128.875 87.2011C129.522 87.3255 129.522 87.3255 130.069 87.7487C135.645 92.2789 132.509 100.792 127.904 105.023C130.244 104.127 133.206 102.484 135.048 99.0743C137.86 105.023 134.898 108.508 129.497 111.122C132.583 111.794 135.546 109.703 137.512 108.533C138.284 112.64 139.628 112.964 134.251 116.05C135.919 116.424 137.736 116.224 138.831 115.602C139.055 116.1 139.18 116.623 139.155 117.121C133.953 123.717 128.128 130.089 121.507 136.411Z" fill="#FFF212"/>
<path fill-rule="evenodd" clip-rule="evenodd" d="M112.72 126.355C114.512 130.363 117.898 135.69 122.527 137.98C121.955 138.527 120.81 139.523 120.188 140.07C115.757 138.95 112.148 130.437 112.72 126.355Z" fill="#FFF212"/>
<path fill-rule="evenodd" clip-rule="evenodd" d="M113.069 88.2465C110.604 88.595 108.065 88.5701 105.8 89.6653C104.73 90.1383 103.884 91.0095 102.863 91.7313C102.266 91.8807 101.469 91.8807 100.698 91.7313C101.718 86.3299 109.186 87.0268 113.069 88.2465Z" fill="#FFF212"/>
<path fill-rule="evenodd" clip-rule="evenodd" d="M113.069 111.644C115.284 111.993 117.026 110.997 118.595 110.475C118.769 111.52 118.669 112.665 117.848 113.437C115.334 113.063 111.799 113.76 112.048 118.216C112.546 119.386 113.293 119.759 113.94 119.809C114.537 119.883 114.985 119.635 115.508 119.336C119.316 117.096 119.665 111.968 120.237 108.11C118.495 109.429 116.031 110.873 113.069 111.644Z" fill="#FFF212"/>
<path fill-rule="evenodd" clip-rule="evenodd" d="M113.243 101.588C113.84 103.032 114.687 104.401 115.508 105.621C111.575 113.063 107.468 121.277 109.235 129.965C103.237 120.008 107.742 111.371 111.177 107.363C111.127 106.591 111.177 105.82 110.754 105.123C109.26 102.609 107.443 100.269 108.762 98.1533C108.962 96.0624 110.679 94.6187 112.048 93.6231C112.446 96.2865 112.197 98.9 113.243 101.588Z" fill="#FFF212"/>
<path fill-rule="evenodd" clip-rule="evenodd" d="M50.9148 132.528C57.7101 140.668 74.6114 152.641 89.1729 134.445C90.2681 135.665 93.4044 140.817 93.2302 142.56C74.8603 158.341 57.984 149.529 50.9148 132.528Z" fill="#FFF212"/>
<path fill-rule="evenodd" clip-rule="evenodd" d="M78.171 148.907C71.973 149.654 69.4092 148.21 66.696 146.592C73.2425 147.762 80.3365 148.26 85.4891 143.306C86.186 144.078 87.107 144.725 87.804 145.522C84.8668 147.314 81.3322 148.334 78.171 148.907Z" fill="#3E4095"/>
<path fill-rule="evenodd" clip-rule="evenodd" d="M149.136 132.528C142.366 140.668 125.464 152.641 110.903 134.445C109.808 135.665 106.671 140.817 106.846 142.56C125.216 158.341 142.067 149.529 149.136 132.528Z" fill="#FFF212"/>
<path fill-rule="evenodd" clip-rule="evenodd" d="M149.111 132.528C142.316 140.668 125.415 152.641 110.878 134.445C109.758 135.665 106.622 140.817 106.821 142.56C125.191 158.341 142.042 149.529 149.111 132.528Z" fill="#FFF212"/>
<path fill-rule="evenodd" clip-rule="evenodd" d="M121.855 148.907C128.053 149.654 130.642 148.21 133.33 146.592C126.809 147.762 119.715 148.26 114.537 143.306C113.84 144.078 112.944 144.725 112.247 145.522C115.159 147.314 118.694 148.334 121.855 148.907Z" fill="#013CA6"/>
<path fill-rule="evenodd" clip-rule="evenodd" d="M105.203 167.102C104.158 166.654 103.087 166.356 102.141 166.281C102.241 172.429 100.971 175.889 107.095 178.553C104.78 174.694 104.929 171.01 105.203 167.102Z" fill="#013CA6"/>
<path fill-rule="evenodd" clip-rule="evenodd" d="M110.679 173.823C110.804 174.968 111.102 176.014 111.5 176.885C116.081 174.445 121.333 172.653 119.665 166.455C117.45 170.413 114.189 172.106 110.679 173.823Z" fill="#013CA6"/>
<path fill-rule="evenodd" clip-rule="evenodd" d="M101.992 162.697C101.494 163.543 101.021 164.364 100.523 165.186C104.78 165.485 105.8 165.559 109.883 168.223C110.953 167.849 111.998 167.102 112.944 166.356C109.858 163.742 105.601 162.373 101.992 162.697Z" fill="#013CA6"/>
<path fill-rule="evenodd" clip-rule="evenodd" d="M119.167 165.061C119.043 164.066 118.445 163.394 117.773 162.622C115.408 166.182 114.786 166.953 110.43 169.144C110.231 170.264 110.355 171.508 110.53 172.703C114.313 171.359 117.624 168.347 119.167 165.061Z" fill="#013CA6"/>
<path fill-rule="evenodd" clip-rule="evenodd" d="M108.489 178.777C109.459 178.777 110.43 178.801 111.401 178.801C109.509 174.968 109.061 174.047 109.335 169.193C108.464 168.447 107.319 167.924 106.199 167.476C105.452 171.434 106.423 175.814 108.489 178.777Z" fill="#013CA6"/>
<path fill-rule="evenodd" clip-rule="evenodd" d="M103.087 161.577C107.717 161.402 110.231 163.244 113.89 165.659C114.612 164.887 115.309 164.34 115.857 163.319C111.376 160.332 107.493 157.42 103.087 161.577Z" fill="#013CA6"/>
<path fill-rule="evenodd" clip-rule="evenodd" d="M112.471 178.528C112.347 178.304 112.222 178.005 112.098 177.806C114.637 176.76 116.056 175.814 118.545 173.848C117.474 176.437 114.512 178.03 112.471 178.528Z" fill="#013CA6"/>
<path fill-rule="evenodd" clip-rule="evenodd" d="M100.25 166.157C100.498 166.157 100.797 166.206 101.046 166.206C100.673 168.92 100.797 170.612 101.245 173.748C99.5526 171.533 99.6273 168.173 100.25 166.157Z" fill="#013CA6"/>
<path fill-rule="evenodd" clip-rule="evenodd" d="M116.902 161.776C116.877 162.124 116.678 162.348 116.454 162.448C114.313 160.755 112.77 160.008 109.833 158.839C112.596 158.465 115.608 160.208 116.902 161.776Z" fill="#013CA6"/>
</g>
<defs>
<clipPath id="clip0_4_301">
<rect width="200" height="200" fill="white"/>
</clipPath>
</defs>
</svg>
