<?xml version="1.0" encoding="utf-8"?>
<!-- Generator: Adobe Illustrator 25.0.1, SVG Export Plug-In . SVG Version: 6.00 Build 0)  -->
<svg version="1.0" id="katman_1" xmlns="http://www.w3.org/2000/svg" xmlns:xlink="http://www.w3.org/1999/xlink" x="0px" y="0px"
	 viewBox="0 0 349 244" style="enable-background:new 0 0 349 244;" xml:space="preserve">
<style type="text/css">
	.st0{fill-rule:evenodd;clip-rule:evenodd;fill:#F8EC4A;}
	.st1{fill-rule:evenodd;clip-rule:evenodd;fill:#2E3192;}
	.st2{fill:none;stroke:#2E3192;stroke-width:7.200000e-02;}
	.st3{fill-rule:evenodd;clip-rule:evenodd;fill:#013CA6;}
	.st4{fill:none;stroke:#013CA6;stroke-width:7.200000e-02;}
	.st5{fill:#F8EC4A;}
	.st6{fill-rule:evenodd;clip-rule:evenodd;fill:#FFFFFF;}
</style>
<g>
	<g>
		<path class="st0" d="M98.2,137.9V22h76.3c0,66.7,0,133.3,0,200C129.6,206.5,99.5,169.9,98.2,137.9z"/>
		<path class="st0" d="M250.9,137.9V22h-76.4c0,66.7,0,133.3,0,200C219.4,206.5,249.5,169.9,250.9,137.9z"/>
		<path class="st1" d="M102.8,137.2V26.8h71.7c0,63.5,0,127,0,190.5C131.7,202.5,104,167.7,102.8,137.2z"/>
		<path class="st2" d="M102.8,137.2V26.8h71.7c0,63.5,0,127,0,190.5C131.7,202.5,104,167.7,102.8,137.2z"/>
		<path class="st3" d="M246.2,137.2V26.8h-71.7c0,63.5,0,127,0,190.5C217.3,202.5,245,167.7,246.2,137.2z"/>
		<path class="st4" d="M246.2,137.2V26.8h-71.7c0,63.5,0,127,0,190.5C217.3,202.5,245,167.7,246.2,137.2z"/>
		<path class="st0" d="M107.1,50.4l8.2,0.1c2,0,3.9,0.6,5.3,1.7c1.4,1.1,1.9,2.6,2,4.4c0.2,2.8-0.8,6-3.2,6.6
			c1.3,0.9,3.7,1.7,3.4,7.2c-0.1,2.4-1,3.8-2.5,5.3c-2.6,2.4-10.2-1.8-13.5-2.4c0.5-0.4,1.1-1.4,1.1-2.7c0-4.9,0.1-14.2,0.1-17.2
			C108,51.9,107.2,51,107.1,50.4z M112.4,71.1c2.1,0.6,3.8,1,4.8,0.4c2.5-1.4,1.6-7.2-4.9-7.2L112.4,71.1z M112.3,60.6l1.3,0.1
			c1.7,0.2,3.2,0.1,3.8-0.7c1.5-1.8,0.9-5.5-2.7-5.5l-2.4,0V60.6z"/>
		<path class="st5" d="M126.1,72.8c0-1.9,0.6-14.8,0.2-20c-0.1-1.1-0.6-2.1-0.7-2.2c0-0.2,4.7,0,5.4-0.1c0,7.3-0.4,17.3-0.4,24.8
			c4,0.8,6.2,1.2,7.4,1.6c0.2,0.4-1.4,4.1-1.5,4.7c-3.8-1-7.3-1.2-11.1-2.7c0-0.1,0-0.1,0-0.2c0.8-0.1,0.9-2.6,0.9-4.9
			C126.1,73.4,126.1,73.1,126.1,72.8z"/>
		<path class="st0" d="M159.7,84.7l-4.9-0.4l-1.3-7l-7.9-0.8l-1.6,6.3l-4.9-0.9l1-2.6l7.6-28.8l4.3,0L159.7,84.7z M152.3,72l-2.7-13
			l-3.1,12.6L152.3,72z"/>
		<path class="st0" d="M174.1,56.8c0-1.8,0-4.3,0-5.2c0-0.5-1.8-1.1-4-1.1c-1.5,0-2.8,0.5-4.6,1.4c-4.5,2.3-5.7,14.7-0.1,17.2
			c8.5,3.7,6.7,13.9-3.6,9.5c0.6,2,1.2,4.1,1.8,6.1c2.6,0.7,6.3,2.1,9.4-2.1c3.4-3.2,3.3-13.1-1.3-16.4c-2.6-2.3-7.7-5.3-4.2-9.5
			C169.9,54.8,171.8,56,174.1,56.8z"/>
		<path class="st0" d="M241.3,54.7c0-1.4,0.1-3.1,0.1-3.8c0-0.7-3.4-1.3-6.6-0.4c-2.8,0.8-5.4,2.8-5.3,6.2c0,1.3-0.1,3.8,0.8,5.5
			c1.5,2.9,4.2,1.6,6.9,3.8c0.7,0.5,0.9,1.2,0.9,1.9c0,2.2-3.1,4.7-8.7,4.5c0.6,1.5,1.1,2.7,1.7,4.2c7.6,0.2,13-7.9,10.9-12.8
			c-0.5-1.2-1.6-2.1-3.1-2.8c-2-1-5.3-0.5-5.1-3.8c0-0.6-0.1-1.3,0.8-2C237,53.7,238.9,54.1,241.3,54.7z"/>
		<path class="st0" d="M187.4,56.3l0.1,28.6l-4.2,0.5v-29h-5.7v-5.7h16.3l-1.7,5.7H187.4z"/>
		<path class="st0" d="M207.8,82.5l-11.7,1.5l0.9-3.2l-0.3-26.5l-1-3.7h12.7l-0.1,5.1l-7,0.2l-0.2,7.8l6.4-0.3v5.2l-6.4,0.5l0.1,8.9
			l8-1.1L207.8,82.5z"/>
		<path class="st0" d="M210.9,50.5c0.3,1.3,0.7,2.5,1,3.8c0.1,8.3,0.1,16.7,0.2,25c-0.5,0.9-1,1.7-1.6,2.6c2-0.4,4-0.8,6-1.3
			c-0.2-4.2,0.2-8.2,0-12.4c0.7,0.1,0.8,0,1.5,0.1c1.4,3.7,2.9,7.3,4.3,11c1.8-0.5,3.7-1,5.5-1.5c-1.9-3.8-3.8-7.6-5.7-11.4
			c7.2-5.3,5.2-16.3-5.3-16.1C215.4,50.4,212.8,50.4,210.9,50.5z"/>
		<path class="st3" d="M216.5,55.3c0,3,0,5.9,0,8.9c1.4-0.3,2.7-0.5,3.6-1.2c2.3-2,2.1-5.6,0-7.1C219.2,55.3,218,55.3,216.5,55.3z"
			/>
		<path class="st6" d="M144.2,46.2V32.3h2.2v6.1l4.3-6.1h2.9l-4,5.4l4.2,8.5h-2.8l-2.9-6.5l-1.7,2.3v4.2H144.2z M154.9,46.2V32.3
			h7.9v2.3h-5.7v3.1h5.3V40h-5.3v3.8h5.9v2.4H154.9z M164.9,46.2V32.3h4.5c1.1,0,2,0.1,2.5,0.4c0.5,0.2,0.9,0.7,1.2,1.3
			s0.5,1.4,0.5,2.2c0,1-0.2,1.9-0.7,2.6s-1.2,1.1-2.1,1.3c0.5,0.3,0.8,0.7,1.1,1.2c0.3,0.4,0.7,1.2,1.2,2.3l1.3,2.7h-2.6l-1.5-3
			c-0.6-1.1-0.9-1.8-1.1-2c-0.2-0.3-0.4-0.5-0.6-0.6c-0.2-0.1-0.6-0.2-1.1-0.2H167v5.8H164.9z M167,38.2h1.6c1,0,1.7-0.1,1.9-0.2
			c0.3-0.1,0.5-0.3,0.6-0.6c0.1-0.3,0.2-0.6,0.2-1c0-0.5-0.1-0.8-0.3-1.1c-0.2-0.3-0.5-0.5-0.8-0.5c-0.2,0-0.7,0-1.6,0H167V38.2z
			 M185.2,46.2h-2.3L182,43h-4.3l-0.9,3.2h-2.3l4.1-13.9h2.3L185.2,46.2z M181.3,40.7l-1.5-5.1l-1.4,5.1H181.3z M186.4,46.2V32.4
			h2.2v11.4h5.3v2.4H186.4z M205.1,46.2h-2.3l-0.9-3.2h-4.3l-0.9,3.2h-2.3l4.1-13.9h2.3L205.1,46.2z M201.1,40.7l-1.5-5.1l-1.4,5.1
			H201.1z"/>
		<path class="st0" d="M152.5,157.8c-0.6,0.4-1.2,0.7-1.8,1.1c-6.4-5.2-12.7-10.6-18.4-16c-4.7-4.3-5.6-4.2-4-11.1
			c1-4.3,2.9-9.2,3.8-11c1.7-5.1,4.8-10.3,8.1-15.2c1-1.3,2.5-2.2,4.4-2.6c1.5-0.4,3.1-0.2,4.6-1c5.6-3.1,9.2-15.8,25.5-7
			c0,3,0,6,0,9c-5.3-4.6-10.9-5.3-14.4-4.4c-5.5,2.5-7.6,5.6-15.4,7.3c-0.7,0.1-0.7,0.1-1.2,0.6c-5.8,4.7-2.5,13.5,2.2,17.8
			c-2.4-0.9-5.5-2.6-7.4-6.1c-2.9,6.1,0.2,9.7,5.8,12.4c-3.2,0.7-6.3-1.5-8.3-2.7c-0.8,4.2-2.2,4.6,3.4,7.8
			c-1.7,0.4-3.6,0.2-4.7-0.5c-0.2,0.5-0.4,1-0.3,1.6C139.6,144.7,145.7,151.3,152.5,157.8z"/>
		<path class="st0" d="M161.6,147.4c-1.9,4.1-5.4,9.6-10.2,12c0.6,0.6,1.8,1.6,2.4,2.2C158.5,160.4,162.2,151.6,161.6,147.4z"/>
		<path class="st0" d="M161.3,108c2.6,0.3,5.2,0.3,7.5,1.5c1.1,0.5,2,1.4,3,2.1c0.6,0.2,1.4,0.2,2.2,0
			C173,106.1,165.3,106.8,161.3,108z"/>
		<path class="st0" d="M161.3,132.2c-2.3,0.4-4.1-0.7-5.7-1.2c-0.2,1.1-0.1,2.3,0.8,3.1c2.6-0.4,6.3,0.3,6,4.9
			c-0.5,1.2-1.3,1.6-1.9,1.7c-0.6,0.1-1.1-0.2-1.6-0.5c-3.9-2.3-4.3-7.6-4.9-11.6C155.7,129.9,158.2,131.4,161.3,132.2z"/>
		<path class="st0" d="M161.1,121.8c-0.6,1.5-1.5,2.9-2.3,4.2c4.1,7.7,8.3,16.2,6.5,25.2c6.2-10.3,1.5-19.2-2-23.4
			c0-0.8,0-1.6,0.4-2.3c1.6-2.6,3.4-5,2.1-7.2c-0.2-2.2-2-3.7-3.4-4.7C161.9,116.3,162.2,119.1,161.1,121.8z"/>
		<path class="st0" d="M165.9,155c4.1,3.8,8.6,10.1,4.9,15.8c-3.8,4.9-5.9,6.5-4.4,11.8c-2.8,1-1.4,1.1-0.5,3.3
			c-0.4,0.7-1,1.3-1.5,1.9c0.5,0.7,1.2,1.3,1.5,2c-0.1,0.5-0.2,1.1-0.7,1.5c0.5,0.4,1.2,0.8,1.4,1.2c0,0.7,0,1.4,0,2.2
			c0.5,0.4,1.3,0.6,1.4,1.3c0.3,0.7,0.4,1.5,0.3,2.3c1.4,0.5,1.3,0.3,1.4,1.8c0.8,0.4,1.6,0.8,2.3,1.3c1.1,1.6,5.1,2.5,7.5,2.7
			c-16-7.8-4-29.5,2.2-39c0.8,0.8,1.4,1.2,2.3,2c-2.8,4.5-5.7,9.3-7.4,14.1c8.9-6.4,17.6-1.6,20.6,5.4c3.1,7.2,0.4,16.9-13.1,19.1
			c-11.7,1.9-21.4-3.3-23-14.3c-1.5-9.3,2.6-16.2,6.8-23.1C170.7,162.8,169,159.8,165.9,155z"/>
		<path class="st0" d="M196.9,157.8c0.6,0.4,1.2,0.7,1.8,1.1c6.4-5.2,12.7-10.6,18.4-16c4.7-4.3,5.6-4.2,4-11.1c-1-4.3-3-9.2-3.8-11
			c-1.7-5.1-4.8-10.3-8.1-15.2c-1-1.3-2.5-2.2-4.4-2.6c-1.5-0.4-3.1-0.2-4.6-1c-5.6-3.1-9.2-15.8-25.5-7c0,3,0,6,0,9
			c5.3-4.6,10.9-5.3,14.4-4.4c5.5,2.5,7.6,5.6,15.4,7.3c0.7,0.1,0.7,0.1,1.2,0.6c5.8,4.7,2.5,13.5-2.2,17.8c2.4-0.9,5.5-2.6,7.4-6.1
			c2.9,6.1-0.2,9.7-5.8,12.4c3.2,0.7,6.3-1.5,8.3-2.7c0.8,4.2,2.2,4.6-3.4,7.8c1.7,0.4,3.6,0.2,4.7-0.5c0.2,0.5,0.4,1,0.4,1.6
			C209.8,144.7,203.7,151.3,196.9,157.8z"/>
		<path class="st0" d="M187.8,147.4c1.9,4.1,5.4,9.6,10.2,12c-0.6,0.6-1.8,1.6-2.4,2.2C190.9,160.4,187.2,151.6,187.8,147.4z"/>
		<path class="st0" d="M188.1,108c-2.6,0.3-5.2,0.3-7.5,1.5c-1.1,0.5-2,1.4-3,2.1c-0.6,0.2-1.4,0.2-2.2,0
			C176.4,106.1,184.1,106.8,188.1,108z"/>
		<path class="st0" d="M188.1,132.2c2.3,0.4,4.1-0.7,5.7-1.2c0.2,1.1,0.1,2.3-0.8,3.1c-2.6-0.4-6.3,0.3-6,4.9
			c0.5,1.2,1.3,1.6,1.9,1.7c0.6,0.1,1.1-0.2,1.6-0.5c3.9-2.3,4.3-7.6,4.9-11.6C193.7,129.9,191.2,131.4,188.1,132.2z"/>
		<path class="st0" d="M188.3,121.8c0.6,1.5,1.5,2.9,2.3,4.2c-4.1,7.7-8.3,16.2-6.5,25.2c-6.2-10.3-1.5-19.2,2-23.4
			c0-0.8,0-1.6-0.4-2.3c-1.6-2.6-3.4-5-2-7.2c0.2-2.2,2-3.7,3.4-4.7C187.5,116.3,187.2,119.1,188.3,121.8z"/>
		<path class="st0" d="M123.8,153.8c7,8.4,24.5,20.8,39.6,2c1.2,1.3,4.4,6.6,4.2,8.4C148.6,180.5,131.1,171.4,123.8,153.8z"/>
		<path class="st1" d="M152,170.7c-6.4,0.8-9.1-0.7-11.9-2.4c6.8,1.2,14.1,1.8,19.5-3.4c0.7,0.8,1.7,1.5,2.4,2.3
			C159,169.1,155.3,170.1,152,170.7z"/>
		<path class="st0" d="M225.5,153.8c-7,8.4-24.5,20.8-39.6,2c-1.1,1.3-4.4,6.6-4.2,8.4C200.7,180.5,218.1,171.4,225.5,153.8z"/>
		<path class="st0" d="M225.4,153.8c-7,8.4-24.5,20.8-39.6,2c-1.2,1.3-4.4,6.6-4.2,8.4C200.7,180.5,218.1,171.4,225.4,153.8z"/>
		<path class="st3" d="M197.2,170.7c6.4,0.8,9.1-0.7,11.9-2.4c-6.8,1.2-14.1,1.8-19.4-3.4c-0.7,0.8-1.7,1.5-2.4,2.3
			C190.3,169.1,194,170.1,197.2,170.7z"/>
		<path class="st3" d="M180,189.5c-1.1-0.5-2.2-0.8-3.2-0.9c0.1,6.4-1.2,9.9,5.1,12.7C179.5,197.4,179.7,193.6,180,189.5z"/>
		<path class="st3" d="M185.7,196.5c0.1,1.2,0.4,2.3,0.8,3.2c4.7-2.5,10.2-4.4,8.4-10.8C192.7,192.9,189.3,194.7,185.7,196.5z"/>
		<path class="st3" d="M176.7,185c-0.5,0.9-1,1.7-1.5,2.6c4.4,0.3,5.5,0.4,9.7,3.1c1.1-0.4,2.2-1.1,3.2-1.9
			C184.8,186,180.4,184.6,176.7,185z"/>
		<path class="st3" d="M194.4,187.4c-0.1-1-0.7-1.7-1.4-2.5c-2.5,3.7-3.1,4.5-7.6,6.7c-0.2,1.2-0.1,2.5,0.1,3.7
			C189.4,193.9,192.9,190.8,194.4,187.4z"/>
		<path class="st3" d="M183.4,201.6c1,0,2,0,3,0c-2-4-2.4-4.9-2.1-9.9c-0.9-0.8-2.1-1.3-3.3-1.8C180.3,194,181.2,198.5,183.4,201.6z
			"/>
		<path class="st3" d="M177.8,183.8c4.8-0.2,7.4,1.7,11.2,4.2c0.8-0.8,1.5-1.3,2-2.4C186.4,182.5,182.4,179.5,177.8,183.8z"/>
		<path class="st3" d="M187.5,201.3c-0.1-0.2-0.2-0.5-0.4-0.7c2.6-1.1,4.1-2.1,6.7-4.1C192.7,199.2,189.6,200.8,187.5,201.3z"/>
		<path class="st3" d="M174.9,188.5c0.2,0,0.6,0,0.8,0c-0.4,2.8-0.3,4.6,0.2,7.8C174.1,194.1,174.2,190.6,174.9,188.5z"/>
		<path class="st3" d="M192.1,184c0,0.4-0.2,0.6-0.5,0.7c-2.2-1.7-3.8-2.5-6.9-3.7C187.6,180.6,190.8,182.4,192.1,184z"/>
	</g>
</g>
</svg>
